<?xml version="1.0" encoding="UTF-8"?>
<svg xmlns="http://www.w3.org/2000/svg" xmlns:xlink="http://www.w3.org/1999/xlink" width="54px" height="54px" viewBox="0 0 54 53" version="1.1">
<defs>
<clipPath id="clip1">
  <path d="M 17.070312 11.757812 L 36.902344 11.757812 L 36.902344 31.25 L 17.070312 31.25 Z M 17.070312 11.757812 "/>
</clipPath>
</defs>
<g id="surface1">
<path style=" stroke:none;fill-rule:nonzero;fill:rgb(72.54902%,90.196078%,92.156863%);fill-opacity:1;" d="M 26.988281 1.6875 C 26.574219 1.6875 26.160156 1.699219 25.746094 1.71875 C 25.332031 1.738281 24.921875 1.769531 24.511719 1.808594 C 24.097656 1.847656 23.6875 1.898438 23.277344 1.957031 C 22.871094 2.015625 22.460938 2.085938 22.058594 2.164062 C 21.652344 2.246094 21.25 2.335938 20.847656 2.433594 C 20.445312 2.53125 20.046875 2.640625 19.652344 2.757812 C 19.257812 2.875 18.863281 3.003906 18.472656 3.140625 C 18.085938 3.277344 17.699219 3.421875 17.316406 3.578125 C 16.933594 3.734375 16.558594 3.898438 16.183594 4.074219 C 15.808594 4.246094 15.441406 4.429688 15.074219 4.621094 C 14.710938 4.8125 14.351562 5.011719 13.996094 5.222656 C 13.640625 5.429688 13.292969 5.648438 12.949219 5.871094 C 12.605469 6.097656 12.265625 6.332031 11.933594 6.574219 C 11.601562 6.816406 11.277344 7.066406 10.957031 7.324219 C 10.636719 7.582031 10.324219 7.847656 10.019531 8.121094 C 9.710938 8.390625 9.414062 8.671875 9.121094 8.960938 C 8.828125 9.246094 8.542969 9.542969 8.265625 9.84375 C 7.988281 10.144531 7.71875 10.449219 7.453125 10.765625 C 7.191406 11.078125 6.9375 11.398438 6.691406 11.726562 C 6.445312 12.050781 6.207031 12.382812 5.976562 12.722656 C 5.746094 13.058594 5.527344 13.402344 5.3125 13.75 C 5.101562 14.097656 4.898438 14.453125 4.703125 14.8125 C 4.507812 15.167969 4.320312 15.53125 4.144531 15.898438 C 3.96875 16.265625 3.800781 16.636719 3.640625 17.011719 C 3.484375 17.390625 3.335938 17.769531 3.195312 18.148438 C 3.058594 18.53125 2.925781 18.917969 2.808594 19.308594 C 2.6875 19.695312 2.578125 20.085938 2.476562 20.480469 C 2.375 20.875 2.285156 21.273438 2.203125 21.671875 C 2.125 22.070312 2.054688 22.46875 1.992188 22.871094 C 1.933594 23.273438 1.882812 23.675781 1.839844 24.078125 C 1.800781 24.484375 1.769531 24.890625 1.75 25.296875 C 1.730469 25.699219 1.71875 26.105469 1.71875 26.511719 C 1.71875 26.917969 1.730469 27.324219 1.75 27.730469 C 1.769531 28.136719 1.800781 28.542969 1.839844 28.945312 C 1.882812 29.351562 1.933594 29.753906 1.992188 30.15625 C 2.054688 30.558594 2.125 30.957031 2.203125 31.355469 C 2.285156 31.753906 2.375 32.152344 2.476562 32.542969 C 2.578125 32.9375 2.6875 33.332031 2.808594 33.71875 C 2.925781 34.109375 3.058594 34.492188 3.195312 34.875 C 3.335938 35.257812 3.484375 35.636719 3.640625 36.011719 C 3.800781 36.386719 3.96875 36.757812 4.144531 37.125 C 4.320312 37.492188 4.507812 37.855469 4.703125 38.214844 C 4.898438 38.574219 5.101562 38.925781 5.3125 39.273438 C 5.527344 39.625 5.746094 39.96875 5.976562 40.304688 C 6.207031 40.640625 6.445312 40.972656 6.691406 41.300781 C 6.9375 41.625 7.191406 41.949219 7.453125 42.261719 C 7.71875 42.574219 7.988281 42.882812 8.265625 43.183594 C 8.542969 43.484375 8.828125 43.777344 9.121094 44.066406 C 9.414062 44.355469 9.710938 44.632812 10.019531 44.90625 C 10.324219 45.179688 10.636719 45.445312 10.957031 45.703125 C 11.277344 45.960938 11.601562 46.210938 11.933594 46.453125 C 12.265625 46.695312 12.605469 46.929688 12.949219 47.152344 C 13.292969 47.378906 13.640625 47.597656 13.996094 47.804688 C 14.351562 48.015625 14.710938 48.214844 15.074219 48.40625 C 15.441406 48.597656 15.808594 48.78125 16.183594 48.953125 C 16.558594 49.128906 16.933594 49.292969 17.316406 49.449219 C 17.699219 49.601562 18.085938 49.75 18.472656 49.886719 C 18.863281 50.023438 19.257812 50.148438 19.652344 50.269531 C 20.046875 50.386719 20.445312 50.496094 20.847656 50.59375 C 21.25 50.691406 21.652344 50.78125 22.058594 50.859375 C 22.460938 50.941406 22.871094 51.007812 23.277344 51.070312 C 23.6875 51.128906 24.097656 51.179688 24.511719 51.21875 C 24.921875 51.257812 25.332031 51.289062 25.746094 51.308594 C 26.160156 51.328125 26.574219 51.335938 26.988281 51.335938 C 27.398438 51.335938 27.8125 51.328125 28.226562 51.308594 C 28.640625 51.289062 29.050781 51.257812 29.464844 51.21875 C 29.875 51.179688 30.285156 51.128906 30.695312 51.070312 C 31.101562 51.007812 31.511719 50.941406 31.914062 50.859375 C 32.320312 50.78125 32.726562 50.691406 33.125 50.59375 C 33.527344 50.496094 33.925781 50.386719 34.320312 50.269531 C 34.71875 50.148438 35.109375 50.023438 35.5 49.886719 C 35.886719 49.75 36.273438 49.601562 36.65625 49.449219 C 37.039062 49.292969 37.417969 49.128906 37.789062 48.953125 C 38.164062 48.78125 38.53125 48.597656 38.898438 48.40625 C 39.261719 48.214844 39.621094 48.015625 39.976562 47.804688 C 40.332031 47.597656 40.679688 47.378906 41.023438 47.152344 C 41.367188 46.929688 41.707031 46.695312 42.039062 46.453125 C 42.371094 46.210938 42.695312 45.960938 43.015625 45.703125 C 43.335938 45.445312 43.648438 45.179688 43.957031 44.90625 C 44.261719 44.632812 44.5625 44.355469 44.851562 44.066406 C 45.144531 43.777344 45.429688 43.484375 45.707031 43.183594 C 45.988281 42.882812 46.257812 42.574219 46.519531 42.261719 C 46.78125 41.949219 47.035156 41.628906 47.28125 41.300781 C 47.527344 40.972656 47.765625 40.640625 47.996094 40.304688 C 48.226562 39.96875 48.445312 39.625 48.660156 39.273438 C 48.871094 38.925781 49.074219 38.574219 49.269531 38.214844 C 49.464844 37.855469 49.652344 37.492188 49.828125 37.125 C 50.003906 36.757812 50.171875 36.386719 50.332031 36.011719 C 50.488281 35.636719 50.636719 35.257812 50.777344 34.875 C 50.917969 34.492188 51.046875 34.109375 51.167969 33.71875 C 51.285156 33.332031 51.398438 32.9375 51.496094 32.542969 C 51.597656 32.152344 51.6875 31.753906 51.769531 31.355469 C 51.847656 30.957031 51.921875 30.558594 51.980469 30.15625 C 52.042969 29.753906 52.09375 29.351562 52.132812 28.945312 C 52.171875 28.542969 52.203125 28.136719 52.222656 27.730469 C 52.242188 27.324219 52.253906 26.917969 52.253906 26.511719 C 52.253906 26.105469 52.242188 25.699219 52.222656 25.296875 C 52.203125 24.890625 52.171875 24.484375 52.132812 24.078125 C 52.09375 23.675781 52.042969 23.273438 51.980469 22.871094 C 51.921875 22.46875 51.847656 22.070312 51.769531 21.671875 C 51.6875 21.273438 51.597656 20.875 51.496094 20.480469 C 51.398438 20.085938 51.285156 19.695312 51.167969 19.308594 C 51.046875 18.917969 50.917969 18.53125 50.777344 18.148438 C 50.636719 17.769531 50.488281 17.390625 50.332031 17.011719 C 50.171875 16.636719 50.003906 16.265625 49.828125 15.898438 C 49.652344 15.53125 49.464844 15.167969 49.269531 14.8125 C 49.074219 14.453125 48.871094 14.097656 48.660156 13.75 C 48.445312 13.402344 48.226562 13.058594 47.996094 12.722656 C 47.765625 12.382812 47.527344 12.050781 47.28125 11.726562 C 47.035156 11.398438 46.78125 11.078125 46.519531 10.765625 C 46.257812 10.449219 45.988281 10.144531 45.707031 9.84375 C 45.429688 9.542969 45.144531 9.246094 44.851562 8.960938 C 44.5625 8.671875 44.261719 8.390625 43.957031 8.121094 C 43.648438 7.847656 43.335938 7.582031 43.015625 7.324219 C 42.695312 7.066406 42.371094 6.816406 42.039062 6.574219 C 41.707031 6.332031 41.367188 6.097656 41.023438 5.871094 C 40.679688 5.648438 40.332031 5.429688 39.976562 5.222656 C 39.621094 5.011719 39.261719 4.8125 38.898438 4.621094 C 38.53125 4.429688 38.164062 4.246094 37.789062 4.074219 C 37.417969 3.898438 37.039062 3.734375 36.65625 3.578125 C 36.273438 3.421875 35.886719 3.277344 35.5 3.140625 C 35.109375 3.003906 34.71875 2.875 34.320312 2.757812 C 33.925781 2.640625 33.527344 2.53125 33.125 2.433594 C 32.726562 2.335938 32.320312 2.246094 31.914062 2.164062 C 31.511719 2.085938 31.101562 2.015625 30.695312 1.957031 C 30.285156 1.898438 29.875 1.847656 29.464844 1.808594 C 29.050781 1.769531 28.640625 1.738281 28.226562 1.71875 C 27.8125 1.699219 27.398438 1.6875 26.988281 1.6875 Z M 26.988281 1.6875 "/>
<g clip-path="url(#clip1)" clip-rule="nonzero">
<path style=" stroke:none;fill-rule:nonzero;fill:rgb(76.078431%,46.666667%,1.960784%);fill-opacity:1;" d="M 20.183594 15.160156 L 20.183594 12.328125 C 20.183594 12.117188 20.308594 11.921875 20.5 11.820312 C 20.691406 11.722656 20.925781 11.742188 21.101562 11.863281 L 23.738281 13.703125 C 24.78125 13.367188 25.871094 13.195312 26.984375 13.195312 C 28.113281 13.195312 29.21875 13.371094 30.273438 13.71875 L 32.859375 11.867188 C 33.035156 11.742188 33.269531 11.722656 33.464844 11.820312 C 33.660156 11.917969 33.78125 12.113281 33.78125 12.328125 L 33.78125 16.65625 C 33.78125 18.261719 33.058594 19.796875 31.796875 20.875 L 31.222656 21.367188 L 36.324219 21.367188 C 36.644531 21.367188 36.902344 21.621094 36.902344 21.9375 C 36.902344 24.429688 35.867188 26.773438 33.988281 28.53125 C 32.117188 30.285156 29.628906 31.25 26.984375 31.25 C 24.339844 31.25 21.851562 30.285156 19.980469 28.53125 C 18.097656 26.773438 17.0625 24.429688 17.0625 21.9375 C 17.0625 19.371094 18.199219 16.914062 20.183594 15.160156 Z M 32.621094 16.65625 L 32.621094 13.453125 L 30.710938 14.820312 C 30.554688 14.929688 30.347656 14.957031 30.167969 14.890625 C 29.152344 14.523438 28.082031 14.335938 26.984375 14.335938 C 25.902344 14.335938 24.847656 14.519531 23.847656 14.875 C 23.667969 14.941406 23.464844 14.914062 23.308594 14.804688 L 21.347656 13.4375 L 21.347656 16.65625 C 21.347656 17.929688 21.925781 19.152344 22.933594 20.015625 L 26.402344 22.984375 L 26.402344 22.785156 C 26.402344 22.46875 26.664062 22.214844 26.984375 22.214844 C 27.304688 22.214844 27.566406 22.46875 27.566406 22.785156 L 27.566406 22.980469 L 31.035156 20.015625 C 32.042969 19.152344 32.621094 17.929688 32.621094 16.65625 Z M 33.625 22.507812 L 33.601562 22.507812 C 33.769531 23.417969 34.414062 24.183594 35.289062 24.527344 C 35.519531 23.886719 35.667969 23.210938 35.71875 22.507812 Z M 26.984375 30.109375 C 30.414062 30.109375 33.386719 28.257812 34.824219 25.574219 C 33.53125 25.050781 32.605469 23.875 32.425781 22.507812 L 29.890625 22.507812 L 27.367188 24.667969 C 27.253906 24.761719 27.121094 24.808594 26.984375 24.808594 C 26.847656 24.808594 26.710938 24.761719 26.601562 24.667969 L 22.167969 20.875 C 20.941406 19.828125 20.226562 18.34375 20.1875 16.789062 C 18.929688 18.234375 18.226562 20.054688 18.226562 21.9375 C 18.226562 26.441406 22.15625 30.109375 26.984375 30.109375 Z M 26.984375 30.109375 "/>
</g>
<path style=" stroke:none;fill-rule:nonzero;fill:rgb(76.078431%,46.666667%,1.960784%);fill-opacity:1;" d="M 25.421875 18.902344 C 25.375 19.136719 25.179688 19.320312 24.9375 19.355469 C 24.699219 19.390625 24.453125 19.269531 24.339844 19.058594 C 24.226562 18.847656 24.257812 18.585938 24.421875 18.40625 C 24.582031 18.230469 24.851562 18.171875 25.074219 18.261719 C 25.328125 18.367188 25.472656 18.636719 25.421875 18.902344 Z M 25.421875 18.902344 "/>
<path style=" stroke:none;fill-rule:nonzero;fill:rgb(76.078431%,46.666667%,1.960784%);fill-opacity:1;" d="M 29.683594 18.902344 C 29.636719 19.136719 29.441406 19.320312 29.199219 19.355469 C 28.960938 19.390625 28.71875 19.269531 28.601562 19.058594 C 28.488281 18.847656 28.523438 18.585938 28.683594 18.40625 C 28.847656 18.230469 29.113281 18.171875 29.335938 18.261719 C 29.59375 18.367188 29.734375 18.636719 29.683594 18.902344 Z M 29.683594 18.902344 "/>
<path style=" stroke:none;fill-rule:nonzero;fill:rgb(100%,100%,100%);fill-opacity:1;" d="M 20.570312 33.015625 L 20.410156 32.996094 L 19.703125 32.960938 L 19.441406 32.953125 L 19.179688 32.957031 C 18.84375 32.980469 18.5 33.039062 18.148438 33.132812 C 18.027344 33.167969 17.894531 33.191406 17.753906 33.210938 L 17.675781 33.222656 L 17.601562 33.234375 C 17.425781 33.28125 17.214844 33.328125 16.972656 33.371094 L 16.882812 33.386719 L 16.789062 33.398438 C 16.734375 33.410156 16.710938 33.425781 16.722656 33.449219 C 16.730469 33.460938 16.742188 33.472656 16.753906 33.476562 L 16.792969 33.480469 C 16.976562 33.496094 17.117188 33.496094 17.210938 33.484375 C 17.308594 33.472656 17.414062 33.464844 17.527344 33.460938 L 17.695312 33.457031 L 17.863281 33.457031 C 17.996094 33.453125 18.109375 33.441406 18.203125 33.429688 L 18.242188 33.425781 C 18.269531 33.425781 18.285156 33.441406 18.289062 33.464844 L 18.296875 33.519531 C 18.292969 33.757812 18.304688 33.984375 18.324219 34.195312 L 18.332031 34.339844 L 18.328125 34.480469 L 18.332031 34.761719 L 18.34375 35.039062 L 18.355469 35.328125 L 18.359375 35.621094 L 18.363281 35.976562 L 18.359375 36.324219 L 18.34375 37.179688 L 18.332031 37.386719 L 18.320312 37.589844 L 18.324219 38.109375 L 18.328125 38.632812 C 18.328125 38.898438 18.34375 39.105469 18.375 39.257812 L 18.390625 39.382812 L 18.410156 39.511719 L 18.429688 39.582031 L 18.453125 39.652344 C 18.472656 39.714844 18.511719 39.746094 18.574219 39.746094 C 18.609375 39.75 18.648438 39.757812 18.695312 39.769531 C 18.75 39.785156 18.808594 39.78125 18.871094 39.761719 L 19.003906 39.714844 C 19.054688 39.695312 19.105469 39.679688 19.148438 39.675781 C 19.246094 39.660156 19.3125 39.609375 19.347656 39.519531 C 19.378906 39.433594 19.429688 39.339844 19.507812 39.238281 C 19.5625 39.160156 19.601562 39.058594 19.621094 38.933594 L 19.65625 38.664062 L 19.695312 38.316406 C 19.703125 38.253906 19.707031 38.183594 19.707031 38.105469 L 19.699219 37.894531 C 19.695312 37.730469 19.6875 37.582031 19.671875 37.449219 L 19.652344 37.265625 L 19.636719 37.082031 C 19.636719 36.804688 19.609375 36.523438 19.5625 36.230469 C 19.550781 36.164062 19.542969 36.074219 19.539062 35.960938 L 19.527344 35.691406 L 19.511719 35.339844 L 19.492188 34.992188 L 19.476562 34.648438 C 19.476562 34.597656 19.472656 34.558594 19.457031 34.527344 C 19.410156 34.425781 19.394531 34.3125 19.414062 34.199219 L 19.417969 34.140625 L 19.414062 34.078125 C 19.40625 34.011719 19.40625 33.960938 19.417969 33.914062 C 19.429688 33.863281 19.425781 33.789062 19.410156 33.699219 L 19.390625 33.574219 L 19.378906 33.445312 C 19.375 33.40625 19.390625 33.386719 19.433594 33.382812 L 19.476562 33.378906 C 19.664062 33.367188 19.839844 33.339844 20.003906 33.296875 C 20.183594 33.253906 20.324219 33.234375 20.425781 33.242188 L 20.558594 33.234375 L 20.6875 33.214844 C 20.746094 33.207031 20.773438 33.175781 20.773438 33.125 C 20.773438 33.089844 20.75 33.066406 20.703125 33.050781 Z M 20.570312 33.015625 "/>
<path style=" stroke:none;fill-rule:nonzero;fill:rgb(100%,100%,100%);fill-opacity:1;" d="M 22.972656 36.519531 C 22.988281 37.269531 22.953125 37.945312 22.871094 38.550781 L 22.859375 38.617188 L 22.847656 38.675781 C 22.835938 38.722656 22.808594 38.765625 22.769531 38.796875 C 22.738281 38.824219 22.738281 38.84375 22.761719 38.851562 L 22.792969 38.855469 L 22.828125 38.855469 L 23.050781 38.867188 L 23.269531 38.875 L 23.304688 38.882812 L 23.335938 38.890625 C 23.359375 38.898438 23.371094 38.917969 23.371094 38.945312 C 23.371094 39.003906 23.335938 39.039062 23.269531 39.042969 L 23.121094 39.058594 L 22.972656 39.070312 C 22.851562 39.078125 22.753906 39.09375 22.675781 39.109375 C 22.53125 39.140625 22.324219 39.140625 22.046875 39.109375 L 21.734375 39.078125 C 21.621094 39.070312 21.515625 39.078125 21.421875 39.097656 C 21.398438 39.101562 21.378906 39.097656 21.363281 39.082031 L 21.347656 39.058594 L 21.335938 39.03125 C 21.320312 38.96875 21.34375 38.929688 21.40625 38.910156 C 21.539062 38.882812 21.644531 38.867188 21.722656 38.863281 C 21.828125 38.859375 21.882812 38.800781 21.882812 38.695312 C 21.886719 37.558594 21.773438 35.886719 21.546875 33.679688 C 21.535156 33.5625 21.476562 33.507812 21.363281 33.519531 L 21.230469 33.519531 L 21.097656 33.507812 C 20.988281 33.503906 20.898438 33.507812 20.832031 33.523438 C 20.796875 33.535156 20.769531 33.527344 20.75 33.5 C 20.738281 33.488281 20.738281 33.472656 20.742188 33.457031 L 20.769531 33.417969 C 20.8125 33.355469 20.878906 33.324219 20.96875 33.328125 C 21.1875 33.335938 21.484375 33.316406 21.863281 33.269531 L 22.3125 33.210938 C 22.480469 33.195312 22.628906 33.1875 22.761719 33.1875 L 22.871094 33.1875 C 22.914062 33.1875 22.949219 33.191406 22.980469 33.199219 C 23.058594 33.214844 23.105469 33.25 23.113281 33.308594 C 23.121094 33.359375 23.085938 33.394531 23.015625 33.421875 L 22.917969 33.449219 L 22.820312 33.472656 C 22.800781 33.480469 22.773438 33.484375 22.730469 33.488281 L 22.640625 33.5 L 22.605469 33.511719 L 22.582031 33.53125 C 22.5625 33.546875 22.5625 33.570312 22.585938 33.589844 C 22.652344 33.652344 22.695312 33.730469 22.707031 33.824219 L 22.722656 33.957031 L 22.726562 34.085938 L 22.8125 34.691406 L 22.886719 35.300781 C 22.941406 35.765625 22.96875 36.171875 22.972656 36.519531 Z M 22.972656 36.519531 "/>
<path style=" stroke:none;fill-rule:nonzero;fill:rgb(100%,100%,100%);fill-opacity:1;" d="M 26.984375 36.019531 C 26.890625 35.980469 26.804688 35.960938 26.734375 35.964844 L 26.625 35.976562 L 26.523438 35.996094 C 26.476562 36.011719 26.433594 36.011719 26.398438 36.007812 C 26.367188 36 26.359375 35.984375 26.371094 35.957031 L 26.425781 35.859375 C 26.503906 35.734375 26.570312 35.609375 26.625 35.480469 L 26.683594 35.347656 C 26.707031 35.300781 26.730469 35.257812 26.757812 35.222656 C 26.773438 35.199219 26.792969 35.164062 26.808594 35.121094 L 26.824219 35.0625 L 26.847656 35.011719 L 26.855469 34.980469 L 26.855469 34.941406 C 26.847656 34.882812 26.828125 34.828125 26.800781 34.777344 C 26.765625 34.730469 26.742188 34.679688 26.71875 34.628906 C 26.699219 34.578125 26.660156 34.542969 26.609375 34.519531 C 26.4375 34.441406 26.277344 34.394531 26.125 34.378906 L 25.933594 34.359375 L 25.742188 34.351562 L 25.570312 34.351562 L 25.394531 34.355469 L 25.144531 34.351562 C 25.050781 34.351562 24.964844 34.355469 24.890625 34.363281 C 24.808594 34.375 24.726562 34.378906 24.644531 34.371094 C 24.519531 34.359375 24.410156 34.367188 24.3125 34.394531 C 24.226562 34.414062 24.152344 34.425781 24.09375 34.425781 L 23.972656 34.441406 L 23.847656 34.457031 L 23.800781 34.46875 L 23.753906 34.488281 C 23.707031 34.511719 23.707031 34.535156 23.753906 34.5625 L 23.800781 34.582031 L 23.9375 34.625 C 23.988281 34.640625 24.035156 34.660156 24.066406 34.679688 C 24.082031 34.683594 24.097656 34.6875 24.121094 34.691406 L 24.175781 34.6875 C 24.238281 34.683594 24.300781 34.691406 24.363281 34.703125 C 24.453125 34.722656 24.578125 34.730469 24.726562 34.734375 L 24.859375 34.738281 L 24.988281 34.746094 C 25.074219 34.761719 25.167969 34.761719 25.273438 34.75 L 25.363281 34.742188 L 25.457031 34.738281 C 25.558594 34.746094 25.597656 34.796875 25.566406 34.894531 L 25.53125 34.988281 L 25.5 35.089844 C 25.484375 35.152344 25.460938 35.21875 25.429688 35.289062 L 25.382812 35.382812 L 25.332031 35.476562 C 25.304688 35.53125 25.261719 35.59375 25.210938 35.667969 L 25.082031 35.855469 C 25.054688 35.886719 25.027344 35.90625 24.988281 35.902344 L 24.894531 35.902344 L 24.804688 35.894531 C 24.636719 35.867188 24.433594 35.894531 24.199219 35.96875 L 24.140625 35.996094 C 24.121094 36.003906 24.117188 36.015625 24.121094 36.035156 C 24.125 36.046875 24.132812 36.054688 24.144531 36.058594 L 24.199219 36.066406 L 24.253906 36.078125 L 24.585938 36.101562 C 24.625 36.105469 24.667969 36.109375 24.714844 36.125 L 24.839844 36.152344 C 24.867188 36.160156 24.875 36.175781 24.863281 36.199219 L 24.828125 36.265625 L 24.640625 36.550781 L 24.445312 36.832031 L 24.378906 36.925781 L 24.3125 37.027344 C 24.265625 37.097656 24.230469 37.167969 24.203125 37.226562 L 24.0625 37.570312 C 24.007812 37.699219 23.953125 37.8125 23.902344 37.90625 C 23.847656 38.007812 23.796875 38.128906 23.75 38.273438 L 23.632812 38.648438 C 23.621094 38.683594 23.617188 38.730469 23.617188 38.78125 C 23.617188 38.851562 23.648438 38.898438 23.710938 38.929688 L 23.765625 38.953125 L 23.820312 38.980469 C 23.9375 39.046875 24.058594 39.0625 24.191406 39.023438 C 24.238281 39.011719 24.300781 39.011719 24.375 39.015625 C 24.65625 39.039062 24.949219 39.035156 25.25 39.007812 L 25.320312 39 L 25.386719 38.996094 C 25.449219 39 25.519531 39 25.597656 38.992188 L 25.808594 38.976562 L 25.957031 38.96875 L 26.125 38.964844 L 26.300781 38.949219 C 26.433594 38.933594 26.535156 38.933594 26.609375 38.941406 L 26.710938 38.941406 C 26.734375 38.941406 26.75 38.929688 26.757812 38.910156 C 26.765625 38.894531 26.78125 38.882812 26.804688 38.875 L 26.851562 38.863281 L 26.882812 38.84375 C 26.890625 38.835938 26.894531 38.824219 26.894531 38.808594 C 26.894531 38.800781 26.890625 38.792969 26.878906 38.785156 L 26.855469 38.773438 L 26.804688 38.753906 L 26.75 38.734375 C 26.679688 38.699219 26.589844 38.679688 26.472656 38.679688 L 26.363281 38.683594 L 25.984375 38.675781 C 25.839844 38.675781 25.714844 38.683594 25.609375 38.695312 C 25.566406 38.699219 25.527344 38.699219 25.5 38.695312 L 25.371094 38.695312 L 25.25 38.703125 L 25.191406 38.710938 L 25.128906 38.710938 C 25.039062 38.707031 24.929688 38.714844 24.804688 38.738281 C 24.757812 38.746094 24.695312 38.742188 24.625 38.730469 L 24.691406 38.617188 L 24.753906 38.519531 L 24.910156 38.269531 C 24.96875 38.171875 25.023438 38.089844 25.070312 38.027344 C 25.121094 37.957031 25.183594 37.863281 25.257812 37.746094 L 25.4375 37.464844 C 25.578125 37.257812 25.675781 37.09375 25.738281 36.976562 L 25.789062 36.890625 C 25.808594 36.859375 25.824219 36.832031 25.835938 36.808594 C 25.839844 36.785156 25.851562 36.765625 25.871094 36.746094 C 25.898438 36.71875 25.925781 36.679688 25.957031 36.625 L 26.074219 36.425781 C 26.113281 36.363281 26.167969 36.324219 26.238281 36.308594 L 26.433594 36.273438 C 26.507812 36.257812 26.574219 36.25 26.628906 36.25 C 26.683594 36.25 26.746094 36.234375 26.816406 36.207031 L 26.988281 36.128906 C 27.015625 36.121094 27.027344 36.101562 27.027344 36.074219 C 27.027344 36.050781 27.011719 36.03125 26.984375 36.019531 Z M 26.984375 36.019531 "/>
<path style=" stroke:none;fill-rule:nonzero;fill:rgb(100%,100%,100%);fill-opacity:1;" d="M 31.757812 34.992188 C 31.175781 34.84375 30.636719 34.816406 30.144531 34.90625 C 30.003906 34.929688 29.910156 34.878906 29.871094 34.75 L 29.832031 34.613281 L 29.78125 34.347656 L 29.734375 34.082031 C 29.695312 33.875 29.644531 33.703125 29.582031 33.566406 C 29.550781 33.492188 29.578125 33.449219 29.671875 33.445312 L 29.855469 33.445312 L 30.042969 33.4375 C 30.179688 33.429688 30.300781 33.410156 30.402344 33.375 L 30.441406 33.367188 L 30.484375 33.355469 C 30.515625 33.34375 30.527344 33.320312 30.523438 33.285156 C 30.519531 33.253906 30.5 33.234375 30.46875 33.226562 L 30.425781 33.214844 L 30.382812 33.214844 L 29.085938 33.167969 C 29.027344 33.167969 28.96875 33.203125 28.90625 33.269531 C 28.84375 33.335938 28.8125 33.398438 28.8125 33.460938 L 28.824219 33.910156 L 28.832031 34.363281 C 28.839844 34.722656 28.835938 35.023438 28.828125 35.269531 C 28.816406 35.5 28.824219 35.773438 28.839844 36.082031 L 28.863281 36.488281 L 28.886719 36.890625 C 28.929688 37.570312 28.925781 38.109375 28.871094 38.515625 C 28.84375 38.679688 28.910156 38.820312 29.074219 38.933594 C 29.234375 39.046875 29.394531 39.074219 29.550781 39.011719 C 29.867188 38.886719 30.339844 38.804688 30.960938 38.765625 L 31.097656 38.761719 L 31.230469 38.757812 C 31.335938 38.75 31.425781 38.726562 31.5 38.695312 L 31.527344 38.675781 L 31.558594 38.660156 C 31.574219 38.640625 31.582031 38.621094 31.578125 38.597656 C 31.570312 38.574219 31.558594 38.558594 31.535156 38.542969 C 31.515625 38.53125 31.492188 38.527344 31.472656 38.53125 C 31.394531 38.542969 31.304688 38.546875 31.207031 38.542969 L 30.941406 38.515625 C 30.714844 38.492188 30.535156 38.5 30.40625 38.542969 C 30.304688 38.574219 30.273438 38.539062 30.316406 38.433594 C 30.394531 38.257812 30.421875 38.074219 30.40625 37.882812 L 30.390625 37.5625 L 30.371094 37.246094 L 30.359375 37.042969 L 30.347656 36.84375 C 30.335938 36.6875 30.304688 36.554688 30.261719 36.453125 C 30.191406 36.300781 30.144531 36.125 30.113281 35.921875 L 30.078125 35.648438 L 30.054688 35.375 C 30.046875 35.292969 30.082031 35.25 30.164062 35.246094 C 30.253906 35.246094 30.382812 35.238281 30.554688 35.222656 L 30.753906 35.207031 L 30.949219 35.195312 L 31.347656 35.195312 C 31.503906 35.195312 31.636719 35.179688 31.746094 35.152344 C 31.808594 35.136719 31.839844 35.113281 31.84375 35.082031 C 31.851562 35.054688 31.84375 35.03125 31.824219 35.015625 L 31.789062 35 Z M 31.757812 34.992188 "/>
<path style=" stroke:none;fill-rule:nonzero;fill:rgb(100%,100%,100%);fill-opacity:1;" d="M 33.503906 37.664062 C 33.496094 37.957031 33.371094 38.234375 33.128906 38.5 C 33.117188 38.507812 33.113281 38.519531 33.109375 38.535156 C 33.101562 38.550781 33.101562 38.5625 33.109375 38.566406 C 33.117188 38.582031 33.128906 38.585938 33.144531 38.582031 L 33.164062 38.574219 L 33.382812 38.464844 C 33.457031 38.425781 33.523438 38.390625 33.570312 38.359375 C 33.964844 38.089844 34.296875 37.734375 34.558594 37.285156 C 34.921875 36.65625 35.058594 36.050781 34.957031 35.476562 C 34.886719 35.082031 34.613281 34.660156 34.140625 34.210938 L 33.980469 34.050781 C 33.917969 33.988281 33.859375 33.941406 33.8125 33.902344 C 33.683594 33.796875 33.550781 33.722656 33.417969 33.679688 L 33.390625 33.671875 L 33.367188 33.65625 C 33.347656 33.648438 33.328125 33.648438 33.3125 33.664062 C 33.300781 33.675781 33.296875 33.691406 33.300781 33.710938 L 33.308594 33.742188 L 33.316406 33.765625 L 33.449219 34.265625 C 33.496094 34.460938 33.527344 34.628906 33.539062 34.773438 C 33.582031 35.28125 33.589844 35.765625 33.566406 36.21875 L 33.558594 36.566406 L 33.5625 36.921875 C 33.5625 37.210938 33.542969 37.460938 33.503906 37.664062 Z M 35.535156 36.523438 C 35.476562 36.945312 35.207031 37.417969 34.71875 37.949219 C 34.480469 38.210938 34.1875 38.417969 33.847656 38.578125 C 33.648438 38.664062 33.402344 38.71875 33.097656 38.738281 L 33.058594 38.738281 L 33.019531 38.742188 C 32.984375 38.746094 32.96875 38.757812 32.960938 38.777344 C 32.9375 38.878906 32.875 38.941406 32.773438 38.960938 L 32.707031 38.976562 L 32.640625 38.980469 C 32.585938 38.988281 32.542969 38.996094 32.511719 39.011719 C 32.394531 39.058594 32.316406 39.054688 32.277344 38.996094 C 32.257812 38.976562 32.246094 38.945312 32.238281 38.898438 L 32.230469 38.839844 L 32.214844 38.777344 C 32.183594 38.597656 32.171875 38.382812 32.183594 38.132812 L 32.203125 37.808594 L 32.222656 37.488281 C 32.238281 37.160156 32.242188 36.785156 32.238281 36.363281 L 32.210938 35.242188 C 32.210938 35.101562 32.203125 34.933594 32.1875 34.734375 L 32.148438 34.226562 C 32.117188 33.816406 32.113281 33.476562 32.132812 33.210938 C 32.136719 33.136719 32.160156 33.101562 32.199219 33.097656 C 32.316406 33.09375 32.386719 33.023438 32.410156 32.878906 L 32.425781 32.816406 C 32.4375 32.792969 32.457031 32.78125 32.484375 32.78125 C 32.511719 32.78125 32.53125 32.792969 32.542969 32.8125 L 32.554688 32.84375 L 32.558594 32.878906 C 32.578125 32.984375 32.644531 33.046875 32.757812 33.070312 C 32.828125 33.085938 32.902344 33.121094 32.972656 33.175781 C 33.019531 33.210938 33.078125 33.265625 33.148438 33.34375 C 33.195312 33.390625 33.25 33.421875 33.320312 33.429688 L 33.570312 33.476562 L 33.820312 33.53125 C 34.003906 33.570312 34.164062 33.625 34.300781 33.6875 C 34.386719 33.726562 34.472656 33.796875 34.5625 33.894531 L 34.667969 34.023438 C 34.707031 34.070312 34.742188 34.109375 34.777344 34.140625 C 35.277344 34.605469 35.539062 35.300781 35.5625 36.222656 L 35.5625 36.382812 C 35.558594 36.441406 35.550781 36.488281 35.535156 36.523438 Z M 35.535156 36.523438 "/>
</g>
</svg>
