<?xml version="1.0" encoding="UTF-8"?><svg xmlns="http://www.w3.org/2000/svg" xmlns:xlink="http://www.w3.org/1999/xlink" width="810" zoomAndPan="magnify" viewBox="0 0 810 809.999993" height="809.999993" preserveAspectRatio="xMidYMid meet" version="1.0"><defs><clipPath id="clip-0"><path d="M 106.148438 106.101562 L 703.851562 106.101562 L 703.851562 703.851562 L 106.148438 703.851562 Z M 106.148438 106.101562 " clip-rule="nonzero"/></clipPath></defs><rect x="-81" width="972" fill="rgb(100%, 100%, 100%)" y="-80.999999" height="971.999992" fill-opacity="1"/><rect x="-81" width="972" fill="rgb(100%, 100%, 100%)" y="-80.999999" height="971.999992" fill-opacity="1"/><path fill="rgb(98.039246%, 97.648621%, 91.758728%)" d="M 404.925781 25.800781 C 195.542969 25.800781 25.800781 195.542969 25.800781 404.925781 C 25.800781 614.3125 195.542969 784.050781 404.925781 784.050781 C 614.3125 784.050781 784.050781 614.3125 784.050781 404.925781 C 784.050781 195.542969 614.3125 25.800781 404.925781 25.800781 Z M 404.925781 25.800781 " fill-opacity="1" fill-rule="nonzero"/><g clip-path="url(#clip-0)"><path fill="rgb(76.078796%, 46.669006%, 1.959229%)" d="M 200.195312 210.371094 L 200.195312 123.613281 C 200.195312 117.0625 203.851562 111.058594 209.671875 108.050781 C 215.492188 105.046875 222.507812 105.542969 227.847656 109.335938 L 307.265625 165.753906 C 338.632812 155.378906 371.46875 150.125 405.023438 150.125 C 439.074219 150.125 472.367188 155.53125 504.140625 166.207031 L 582.027344 109.460938 C 587.351562 105.578125 594.40625 105.019531 600.28125 108.003906 C 606.152344 110.992188 609.851562 117.023438 609.851562 123.613281 L 609.851562 256.324219 C 609.851562 305.484375 588.0625 352.640625 550.074219 385.707031 L 532.777344 400.765625 L 686.386719 400.765625 C 696.058594 400.765625 703.898438 408.605469 703.898438 418.277344 C 703.898438 494.71875 672.703125 566.535156 616.054688 620.503906 C 559.640625 674.25 484.695312 703.851562 405.023438 703.851562 C 325.347656 703.851562 250.402344 674.25 193.992188 620.503906 C 137.34375 566.535156 106.148438 494.71875 106.148438 418.277344 C 106.148438 339.535156 140.347656 264.242188 200.195312 210.371094 Z M 574.828125 256.324219 L 574.828125 158.039062 L 517.316406 199.941406 C 512.574219 203.398438 506.417969 204.246094 500.917969 202.207031 C 470.378906 190.886719 438.117188 185.148438 405.023438 185.148438 C 372.429688 185.148438 340.621094 190.71875 310.484375 201.710938 C 305.074219 203.683594 299.039062 202.871094 294.34375 199.535156 L 235.21875 157.535156 L 235.21875 256.332031 C 235.21875 295.351562 252.617188 332.875 282.957031 359.285156 L 387.511719 450.300781 L 387.511719 444.230469 C 387.511719 434.558594 395.351562 426.71875 405.023438 426.71875 C 414.695312 426.71875 422.535156 434.558594 422.535156 444.230469 L 422.535156 450.285156 L 527.082031 359.289062 C 557.425781 332.875 574.828125 295.347656 574.828125 256.324219 Z M 605.105469 435.789062 L 604.371094 435.789062 C 609.511719 463.59375 628.859375 487.148438 655.269531 497.710938 C 662.210938 478.035156 666.667969 457.285156 668.238281 435.789062 Z M 405.023438 668.828125 C 508.351562 668.828125 597.976562 612.128906 641.257812 529.777344 C 602.292969 513.742188 574.347656 477.722656 568.960938 435.789062 L 492.539062 435.789062 L 416.511719 501.964844 C 413.214844 504.832031 409.113281 506.265625 405.011719 506.265625 C 400.910156 506.265625 396.808594 504.832031 393.515625 501.964844 L 259.960938 385.703125 C 223.011719 353.539062 201.398438 308.042969 200.25 260.339844 C 162.34375 304.703125 141.171875 360.460938 141.171875 418.277344 C 141.171875 556.429688 259.535156 668.828125 405.023438 668.828125 Z M 405.023438 668.828125 " fill-opacity="1" fill-rule="nonzero"/></g><path fill="rgb(76.078796%, 46.669006%, 1.959229%)" d="M 357.984375 325.167969 C 356.496094 332.347656 350.65625 337.972656 343.386719 339.070312 C 336.160156 340.164062 328.808594 336.441406 325.378906 330 C 321.929688 323.53125 322.929688 315.4375 327.832031 309.988281 C 332.714844 304.566406 340.785156 302.777344 347.511719 305.578125 C 355.191406 308.773438 359.515625 317.039062 357.984375 325.167969 Z M 357.984375 325.167969 " fill-opacity="1" fill-rule="nonzero"/><path fill="rgb(76.078796%, 46.669006%, 1.959229%)" d="M 486.40625 325.167969 C 484.917969 332.347656 479.082031 337.972656 471.808594 339.070312 C 464.582031 340.164062 457.230469 336.4375 453.800781 330 C 450.351562 323.53125 451.347656 315.441406 456.257812 309.988281 C 461.136719 304.566406 469.210938 302.777344 475.9375 305.578125 C 483.613281 308.773438 487.9375 317.039062 486.40625 325.167969 Z M 486.40625 325.167969 " fill-opacity="1" fill-rule="nonzero"/></svg>